<?xml version="1.0" encoding="UTF-8"?>
<svg id="_圖層_1" data-name="圖層 1" xmlns="http://www.w3.org/2000/svg" viewBox="0 0 100 34.12">
  <defs>
    <style>
      .cls-1 {
        fill: #e95705;
      }

      .cls-2 {
        fill: #14365f;
      }

      .cls-3 {
        fill: #4bbde0;
      }
    </style>
  </defs>
  <g>
    <path class="cls-2" d="m3.29,14.77L-.18.25h3l2.19,9.97L7.67.25h3.49l2.55,10.14L15.93.25h2.95l-3.53,14.52h-3.11l-2.89-10.85-2.88,10.85h-3.18Z"/>
    <path class="cls-2" d="m35.41,10.04l2.85-.28c.17.96.52,1.66,1.04,2.11.53.45,1.23.67,2.12.67.94,0,1.66-.2,2.13-.6.48-.4.72-.87.72-1.4,0-.34-.1-.64-.3-.88s-.55-.45-1.05-.63c-.34-.12-1.13-.33-2.35-.63-1.57-.39-2.67-.87-3.31-1.44-.89-.8-1.34-1.77-1.34-2.92,0-.74.21-1.43.63-2.07.42-.64,1.02-1.13,1.81-1.47.79-.34,1.74-.51,2.86-.51,1.82,0,3.19.4,4.12,1.2.92.8,1.4,1.87,1.45,3.2l-2.93.13c-.13-.75-.39-1.28-.81-1.61s-1.03-.49-1.86-.49-1.52.18-2,.53c-.31.22-.47.52-.47.9,0,.34.15.64.44.88.37.31,1.27.63,2.69.97,1.43.34,2.48.69,3.16,1.04s1.22.85,1.6,1.48c.39.62.58,1.39.58,2.31,0,.83-.23,1.61-.69,2.34-.46.73-1.12,1.27-1.96,1.62-.85.35-1.9.53-3.16.53-1.84,0-3.25-.42-4.23-1.27s-1.57-2.08-1.76-3.71Z"/>
    <path class="cls-2" d="m51.7.25h5.36c1.21,0,2.13.09,2.76.28.85.25,1.58.7,2.19,1.34s1.07,1.42,1.39,2.35.48,2.07.48,3.43c0,1.2-.15,2.23-.45,3.09-.36,1.06-.88,1.91-1.55,2.57-.51.5-1.2.88-2.06,1.16-.65.2-1.51.31-2.6.31h-5.52V.25Zm2.93,2.46v9.62h2.19c.82,0,1.41-.05,1.77-.14.48-.12.87-.32,1.18-.6.31-.28.57-.75.77-1.4.2-.65.3-1.54.3-2.66s-.1-1.98-.3-2.58-.48-1.07-.83-1.41c-.36-.34-.81-.56-1.36-.68-.41-.09-1.21-.14-2.41-.14h-1.32Z"/>
    <path class="cls-2" d="m67.79,7.6c0-1.48.22-2.72.66-3.72.33-.74.78-1.4,1.35-1.99.57-.59,1.2-1.02,1.88-1.31.9-.38,1.95-.57,3.13-.57,2.14,0,3.85.66,5.14,1.99,1.28,1.33,1.93,3.17,1.93,5.54s-.64,4.18-1.91,5.5c-1.27,1.32-2.98,1.99-5.11,1.99s-3.88-.66-5.15-1.98-1.91-3.13-1.91-5.44Zm3.02-.1c0,1.64.38,2.89,1.14,3.74.76.85,1.72,1.27,2.89,1.27s2.13-.42,2.88-1.26c.75-.84,1.12-2.1,1.12-3.79s-.36-2.91-1.09-3.72c-.73-.82-1.7-1.23-2.91-1.23s-2.18.41-2.92,1.24c-.74.83-1.11,2.08-1.11,3.75Z"/>
    <path class="cls-2" d="m86.15,14.77V.25h4.39l2.63,9.9L95.78.25h4.4v14.52h-2.72V3.34l-2.88,11.43h-2.82l-2.87-11.43v11.43h-2.72Z"/>
    <path class="cls-2" d="m9.97,34.12v-11.95h-4.27v-2.43h11.43v2.43h-4.26v11.95h-2.9Z"/>
    <path class="cls-2" d="m33.1,34.12h-3.16l-1.26-3.27h-5.75l-1.19,3.27h-3.08l5.6-14.39h3.07l5.76,14.39Zm-5.35-5.69l-1.98-5.34-1.94,5.34h3.93Z"/>
    <path class="cls-2" d="m37.33,34.12v-14.27h2.9v11.84h7.22v2.42h-10.13Z"/>
    <path class="cls-2" d="m52.14,34.12v-14.39h10.67v2.43h-7.76v3.19h7.22v2.42h-7.22v3.92h8.04v2.42h-10.94Z"/>
    <path class="cls-2" d="m68.19,34.12v-14.39h2.83l5.89,9.61v-9.61h2.7v14.39h-2.91l-5.8-9.38v9.38h-2.7Z"/>
    <path class="cls-2" d="m88.52,34.12v-11.95h-4.27v-2.43h11.43v2.43h-4.26v11.95h-2.9Z"/>
  </g>
  <g>
    <path class="cls-2" d="m22.93,8.8c-.37,0-.74-.17-.98-.5-.39-.54-.27-1.3.27-1.69L30.31.72c.54-.39,1.3-.27,1.69.27.39.54.27,1.3-.27,1.69l-8.09,5.89c-.21.16-.46.23-.71.23Z"/>
    <path class="cls-3" d="m31.02,8.8c-.25,0-.5-.08-.71-.23l-8.09-5.89c-.54-.39-.66-1.15-.27-1.69.39-.54,1.15-.66,1.69-.27l8.09,5.89c.54.39.66,1.15.27,1.69-.24.33-.61.5-.98.5Z"/>
    <path class="cls-2" d="m22.93,14.69c-.37,0-.74-.17-.98-.5-.39-.54-.27-1.3.27-1.69l8.09-5.89c.54-.39,1.3-.27,1.69.27.39.54.27,1.3-.27,1.69l-8.09,5.89c-.21.16-.46.23-.71.23Z"/>
    <path class="cls-1" d="m31.02,14.69c-.25,0-.5-.08-.71-.23l-8.09-5.89c-.54-.39-.66-1.15-.27-1.69.39-.54,1.15-.66,1.69-.27l8.09,5.89c.54.39.66,1.15.27,1.69-.24.33-.61.5-.98.5Z"/>
  </g>
</svg>