<?xml version="1.0" encoding="UTF-8"?>
<svg id="_圖層_1" data-name="圖層 1" xmlns="http://www.w3.org/2000/svg" viewBox="0 0 313.36 41.33">
  <defs>
    <style>
      .cls-1, .cls-2, .cls-3, .cls-4 {
        fill: none;
      }

      .cls-5 {
        fill: #14365f;
      }

      .cls-2 {
        stroke: #e95705;
      }

      .cls-2, .cls-3, .cls-4 {
        stroke-linecap: round;
        stroke-linejoin: round;
        stroke-width: 6.5px;
      }

      .cls-3 {
        stroke: #14365f;
      }

      .cls-4 {
        stroke: #4bbde0;
      }
    </style>
  </defs>
  <path class="cls-5" d="m9.31,40.6L0,1.59h8.06l5.88,26.8L21.08,1.59h9.37l6.84,27.25L43.27,1.59h7.93l-9.47,39.01h-8.36l-7.77-29.17-7.74,29.17h-8.54Z"/>
  <path class="cls-1" d="m64.6,40.6V1.59h7.88v39.01h-7.88Z"/>
  <path class="cls-5" d="m83.61,27.91l7.66-.75c.46,2.57,1.4,4.46,2.81,5.67,1.41,1.21,3.31,1.81,5.71,1.81,2.54,0,4.45-.54,5.74-1.61,1.29-1.07,1.93-2.33,1.93-3.77,0-.92-.27-1.71-.81-2.35s-1.49-1.21-2.83-1.69c-.92-.32-3.02-.89-6.31-1.7-4.22-1.05-7.18-2.33-8.89-3.86-2.4-2.15-3.59-4.76-3.59-7.85,0-1.99.56-3.84,1.69-5.58,1.13-1.73,2.75-3.05,4.87-3.95,2.12-.91,4.68-1.36,7.68-1.36,4.9,0,8.58,1.07,11.06,3.22,2.47,2.15,3.77,5.01,3.9,8.6l-7.88.35c-.34-2-1.06-3.45-2.17-4.32s-2.77-1.32-4.99-1.32-4.08.47-5.38,1.41c-.83.6-1.25,1.41-1.25,2.42,0,.92.39,1.71,1.17,2.37.99.83,3.41,1.7,7.24,2.61,3.83.91,6.67,1.84,8.5,2.81s3.27,2.29,4.31,3.96c1.04,1.68,1.56,3.75,1.56,6.21,0,2.24-.62,4.33-1.86,6.28-1.24,1.95-3,3.4-5.27,4.35-2.27.95-5.1,1.42-8.49,1.42-4.93,0-8.72-1.14-11.36-3.42s-4.22-5.6-4.74-9.97Z"/>
  <path class="cls-5" d="m127.04,40.64V8.52h-11.47V1.98h30.72v6.54h-11.44v32.12h-7.8Z"/>
  <path class="cls-5" d="m180.2,40.64h-8.49l-3.38-8.78h-15.45l-3.19,8.78h-8.28L156.46,1.98h8.25l15.48,38.65Zm-14.37-15.29l-5.33-14.34-5.22,14.34h10.55Z"/>
  <path class="cls-5" d="m183.57,40.64V2.3h7.8v31.83h19.41v6.51h-27.21Z"/>
  <path class="cls-5" d="m215.36,40.64V1.98h28.66v6.54h-20.86v8.57h19.41v6.51h-19.41v10.52h21.59v6.51h-29.4Z"/>
  <path class="cls-5" d="m248.48,40.64V1.98h7.59l15.82,25.81V1.98h7.25v38.65h-7.83l-15.58-25.21v25.21h-7.25Z"/>
  <path class="cls-5" d="m294.12,40.64V8.52h-11.47V1.98h30.72v6.54h-11.44v32.12h-7.8Z"/>
  <g>
    <line class="cls-3" x1="77.83" y1="5.49" x2="56.08" y2="21.31"/>
    <line class="cls-4" x1="56.08" y1="5.49" x2="77.83" y2="21.31"/>
    <line class="cls-3" x1="56.08" y1="37.13" x2="77.83" y2="21.31"/>
    <line class="cls-2" x1="77.83" y1="37.13" x2="56.08" y2="21.31"/>
  </g>
</svg>